<svg width="586" height="223" viewBox="0 0 586 223" fill="none" xmlns="http://www.w3.org/2000/svg">
<path d="M44.6497 219.443H0.429443V3.30615H88.8838C138.519 3.30615 169.508 26.7827 169.508 71.3326C169.508 104.144 151.764 126.121 121.372 134.844L175.228 219.429H124.69L74.75 139.053H44.6636V219.429L44.6497 219.443ZM86.468 102.047C112.348 102.047 125.579 90.9057 125.579 71.6382C125.579 52.3708 112.348 40.9381 86.468 40.9381H44.6497V102.047H86.468Z" fill="#FF4316"/>
<path d="M342.501 198.676C333.782 212.22 313.317 222.763 286.243 222.763C229.68 222.763 187.862 177.616 187.862 112.59C187.862 47.5644 230.277 0 289.242 0C335.268 0 365.354 24.3795 378.891 63.22L336.475 77.3615C330.755 52.982 314.206 38.8266 289.839 38.8266C255.838 38.8266 232.374 67.7209 232.374 111.673C232.374 155.626 255.838 185.118 290.436 185.118C318.412 185.118 337.072 165.558 338.877 139.067H286.535V101.435H382.209V219.43H342.501V198.662V198.676Z" fill="#FF4316"/>
<path d="M418.307 3.30615H507.359C554.286 3.30615 579.263 23.7683 579.263 60.8029C579.263 86.6966 563.922 100.838 549.177 107.159C570.836 114.382 585.886 132.747 585.886 158.932C585.886 196.856 558.507 219.429 512.773 219.429H418.307V3.30615ZM503.152 91.1974C525.116 91.1974 537.445 82.7653 537.445 65.6093C537.445 48.4534 525.116 40.0213 503.152 40.0213H460.736V91.1974H503.152ZM460.736 182.409H509.774C531.433 182.409 543.165 171.268 543.165 154.709C543.165 138.151 531.433 127.01 509.774 127.01H460.736V182.395V182.409Z" fill="#FF4316"/>
</svg>
